<svg width="1920" height="1080" viewBox="0 0 1920 1080" fill="none" xmlns="http://www.w3.org/2000/svg">
<g clip-path="url(#clip0_9563_576)">
<rect width="1920" height="1080" fill="#0F1257"/>
<path d="M1293.9 -242.857L1347.43 -212.694C1347.43 -212.694 1242.32 -51.125 1315.82 129.385C1383.92 296.548 1562.44 374.774 1562.44 374.774L1551.91 393.486C1551.91 393.486 1357.11 321.572 1275.68 149.878C1177.61 -56.8211 1293.9 -242.857 1293.9 -242.857Z" fill="white"/>
<path d="M1347.36 -212.542C1347.36 -212.542 1242.35 -51.0863 1315.85 129.342C1383.96 296.43 1562.41 374.655 1562.41 374.655L1576.18 350.168C1576.18 350.168 1430 290.027 1365.22 121.557C1301.73 -43.6401 1400.88 -182.392 1400.88 -182.392L1347.36 -212.542Z" fill="#E53412"/>
<path d="M1400.54 -181.898C1394.68 -173.448 1303.65 -38.2672 1365.05 121.65C1429.71 290.062 1575.88 350.172 1575.88 350.172L1573.7 354.062L1582.66 338.131C1582.66 338.131 1433.18 250.454 1405.58 122.321C1370.45 -40.9189 1469.09 -140.051 1469.09 -140.051L1400.54 -181.898Z" fill="#010101"/>
<path d="M1532.01 -27.9445C1491.9 -17.8221 1454.88 1.97828 1424.2 29.7236C1393.51 57.4689 1370.1 92.3131 1356 131.206C1341.9 170.098 1337.55 211.854 1343.34 252.816C1349.12 293.779 1364.85 332.7 1389.16 366.172L1531.16 288.317L1797.85 67.4495C1768.03 26.9357 1726.82 -3.77581 1679.47 -20.7663C1632.12 -37.7567 1580.79 -40.2558 1532.01 -27.9445Z" fill="#FF0000"/>
<path d="M1530.68 286.399L1408.23 387.952C1448.32 431.131 1502.24 458.958 1560.66 466.632C1619.08 474.306 1678.35 461.344 1728.24 429.984C1778.12 398.624 1815.5 350.833 1833.91 294.859C1852.32 238.885 1850.62 178.239 1829.09 123.388L1530.68 286.399Z" fill="#00B0FF"/>
<path d="M1737.8 106.522C1711.54 77.1273 1677.94 55.2419 1640.44 43.1076C1602.93 30.9733 1562.88 29.0261 1524.37 37.4656C1485.87 45.9052 1450.3 64.428 1421.31 91.1368C1392.32 117.846 1370.96 151.78 1359.4 189.465C1347.84 227.15 1346.5 267.23 1355.53 305.599C1364.56 343.969 1383.62 379.249 1410.77 407.827C1437.92 436.404 1472.18 457.25 1510.04 468.231C1547.89 479.212 1587.99 479.932 1626.22 470.318L1916.93 397.001C1925.32 394.894 1933.01 390.614 1939.22 384.591C1945.44 378.568 1949.95 371.015 1952.32 362.693C1954.68 354.371 1954.81 345.572 1952.69 337.183C1950.58 328.794 1946.29 321.111 1940.26 314.906L1737.8 106.522Z" fill="#010101"/>
<path d="M1372.71 375.177L1505.55 498.8L1531.1 288.525L1372.71 375.177Z" fill="#00B0FF"/>
<path d="M1883.39 364.029C1887.61 362.972 1891.42 360.685 1894.33 357.459C1897.25 354.233 1899.14 350.213 1899.77 345.91C1900.41 341.618 1899.75 337.232 1897.89 333.312C1896 329.448 1893.03 326.213 1889.35 324C1885.62 321.777 1881.31 320.709 1876.97 320.933C1872.63 321.156 1868.46 322.66 1864.97 325.255C1861.49 327.843 1858.85 331.408 1857.39 335.498C1855.93 339.587 1855.72 344.018 1856.78 348.228C1857.48 351.026 1858.72 353.658 1860.44 355.974C1862.16 358.291 1864.32 360.245 1866.8 361.726C1869.27 363.207 1872.01 364.185 1874.87 364.605C1877.72 365.025 1880.63 364.878 1883.43 364.173L1883.39 364.029Z" fill="white"/>
<path d="M1616.74 608.127L1611.82 259.182L1833.19 538.193L1616.74 608.127Z" fill="#07A13D" stroke="black" stroke-width="4"/>
<path d="M1609.74 253.338L1922.51 647.875" stroke="#010101" stroke-width="4" stroke-miterlimit="10"/>
<path d="M1812.88 544.617L1891.07 643.251" stroke="#010101" stroke-width="4" stroke-miterlimit="10"/>
<path d="M1783.61 554.29L1864.72 657.128" stroke="#010101" stroke-width="4" stroke-miterlimit="10"/>
<path d="M1756.14 563.394L1840.17 669.247" stroke="#010101" stroke-width="4" stroke-miterlimit="10"/>
<path d="M1700.7 719.866L1922.3 648.08L1900.84 621.934L1690.96 689.939L1700.7 719.866Z" fill="white" stroke="black" stroke-width="4"/>
<path d="M1751.44 208.972C1781.6 201.006 1799.6 170.096 1791.63 139.932C1783.66 109.769 1752.75 91.7742 1722.59 99.7402C1692.43 107.706 1674.43 138.616 1682.4 168.779C1690.36 198.943 1721.27 216.937 1751.44 208.972Z" fill="#F49500"/>
<path d="M1551.62 144.306L1642.93 144.662C1637.72 137.44 1630.88 131.553 1622.96 127.482C1615.04 123.41 1606.27 121.269 1597.37 121.234C1588.46 121.2 1579.68 123.272 1571.72 127.281C1563.77 131.291 1556.89 137.125 1551.62 144.306Z" fill="#F49500"/>
<path d="M1642.93 144.663L1706.61 144.886C1702.97 139.849 1698.2 135.743 1692.68 132.904C1687.15 130.065 1681.03 128.573 1674.82 128.552C1668.61 128.53 1662.48 129.979 1656.94 132.779C1651.4 135.579 1646.59 139.651 1642.93 144.663Z" fill="#FF0000"/>
<path d="M1706.57 144.845L1776.57 145.093C1772.58 139.558 1767.33 135.047 1761.26 131.927C1755.18 128.808 1748.46 127.169 1741.63 127.145C1734.81 127.121 1728.07 128.712 1721.98 131.788C1715.88 134.864 1710.6 139.339 1706.57 144.845Z" fill="#FF0000"/>
<path d="M1776.57 145.093L1811.58 145.225C1809.58 142.458 1806.95 140.204 1803.92 138.644C1800.88 137.085 1797.52 136.265 1794.11 136.252C1790.69 136.239 1787.33 137.034 1784.28 138.57C1781.23 140.107 1778.59 142.342 1776.57 145.093Z" fill="#FF0000"/>
<path d="M1751.99 -13.6044L1707.19 140.361L1788.23 3.38956L1751.99 -13.6044Z" fill="#00B0FF"/>
<path d="M1742.44 351.405C1742.44 351.405 2017.66 521.84 2049.36 539.309C2081.06 556.778 2092.89 532.6 2067.36 515.021C2041.84 497.442 1742.44 351.405 1742.44 351.405Z" fill="white"/>
<path d="M1583 516.087C1583 516.087 1558.29 679.654 1556.46 698.059C1554.63 716.464 1568.37 717.157 1571.49 701.632C1574.62 686.107 1583 516.087 1583 516.087Z" fill="white"/>
<path d="M1564.1 494.459C1564.1 494.459 1521.27 595.846 1517.07 607.41C1512.86 618.975 1521.6 621.681 1526.17 612.186C1530.74 602.691 1564.1 494.459 1564.1 494.459Z" fill="white"/>
<path d="M1785.91 277.929C1785.91 277.929 1999.93 293.939 2023.92 294.519C2047.9 295.099 2047.51 277.179 2027.12 274.666C2006.72 272.153 1785.91 277.929 1785.91 277.929Z" fill="white"/>
<path d="M1697.16 55.01C1697.16 55.01 1736.66 -57.4476 1740.44 -70.2254C1744.22 -83.0031 1734.54 -85.3561 1730.25 -74.7798C1725.96 -64.2035 1697.16 55.01 1697.16 55.01Z" fill="white"/>
<ellipse cx="1487.23" cy="203.63" rx="62.65" ry="62.2814" transform="rotate(-14.1546 1487.23 203.63)" fill="white"/>
<path d="M1360.95 838.938L1338.38 840.896L1326.67 853.673L1309.08 857.921L1300.42 872.223H1333.64L1354.74 866.449L1375.22 858.12L1383.98 844.447L1385.51 824.171L1360.95 838.938Z" fill="#006C9E"/>
<path d="M1411.46 853.673L1363.27 872.223H1333.64L1346.18 853.739L1371.27 849.757L1385.51 824.171L1403.66 836.449L1411.46 853.673Z" fill="white"/>
<path d="M1333.64 872.223L1333.57 872.389L1318.47 872.488L1312.33 886.095L1329.95 924.324L1359.56 982.432L1373.83 964.877L1377.61 946.028L1400.24 940.386L1411.46 918.417L1425.93 910.884L1430.44 872.223H1333.64Z" fill="#006C9E"/>
<path d="M1359.56 982.432L1330.52 960.463L1323.62 929.103L1297.9 910.254L1300.42 872.223H1333.64L1326.14 900.232L1343.69 915.928V936.005L1355.94 953.561L1359.56 982.432Z" fill="#1C2E51"/>
<path d="M1394.9 849.757L1387.07 858.883L1372.23 861.405L1363.27 872.223H1400.24L1417.53 866.15L1422.71 856.327L1394.9 849.757Z" fill="#006C9E"/>
<path d="M1430.44 872.223H1400.24L1422.71 856.327L1430.44 872.223Z" fill="white"/>
<path d="M1441.69 872.223H1286.65V878.362H1441.69V872.223Z" fill="#07A13D"/>
<path d="M1336.79 888.717H1345.55V901.559L1356.44 888.717H1366.82L1354.84 902.323L1367.22 920.342H1356.7L1348.74 908.595L1345.52 912.179V920.342H1336.76V888.717H1336.79Z" fill="white"/>
<path d="M1363.94 904.513C1363.94 895.287 1371.04 888.053 1380.59 888.053C1387.07 888.053 1391.08 890.841 1393.87 894.723L1387.46 899.701C1385.67 897.444 1383.55 896.051 1380.5 896.051C1376.08 896.051 1372.96 899.8 1372.96 904.513C1372.96 909.225 1376.08 912.975 1380.5 912.975C1383.78 912.975 1385.74 911.449 1387.63 909.126L1394.23 913.838C1391.25 917.953 1387.23 920.973 1380.23 920.973C1371.2 920.973 1363.94 914.07 1363.94 904.513Z" fill="white"/>
<path d="M1504.64 861.406L1492.07 878.826L1505.14 897.04H1492.36L1480.41 879.422V897.04H1469.2V861.406H1480.41V878.627L1491.87 861.406H1504.64Z" fill="white"/>
<path d="M1537.94 897.04H1527.77V884.764C1527.77 883.323 1527.34 882.172 1526.48 881.31C1525.62 880.432 1524.44 879.993 1522.93 879.993C1521.39 879.993 1520.19 880.424 1519.35 881.286C1518.52 882.13 1518.11 883.29 1518.11 884.764V897.04H1507.92V871.595H1518.11V876.167H1518.6C1518.72 875.769 1519.1 875.173 1519.75 874.378C1520.19 873.831 1520.74 873.326 1521.39 872.862C1522.1 872.381 1523.03 871.967 1524.17 871.619C1525.31 871.272 1526.51 871.098 1527.77 871.098C1530.92 871.098 1533.41 871.984 1535.23 873.756C1537.03 875.546 1537.94 878.221 1537.94 881.783V897.04Z" fill="white"/>
<path d="M1547.18 894.182C1544.41 891.946 1543.03 888.657 1543.03 884.317C1543.03 879.977 1544.41 876.689 1547.18 874.452C1549.93 872.216 1553.64 871.098 1558.31 871.098C1562.97 871.098 1566.67 872.216 1569.42 874.452C1572.19 876.689 1573.57 879.977 1573.57 884.317C1573.57 888.657 1572.19 891.946 1569.42 894.182C1566.67 896.419 1562.97 897.537 1558.31 897.537C1553.64 897.537 1549.93 896.419 1547.18 894.182ZM1561.97 887.796C1562.81 886.935 1563.23 885.775 1563.23 884.317C1563.23 882.859 1562.81 881.691 1561.97 880.813C1561.12 879.952 1559.9 879.521 1558.31 879.521C1556.71 879.521 1555.48 879.952 1554.64 880.813C1553.79 881.691 1553.37 882.859 1553.37 884.317C1553.37 885.775 1553.79 886.935 1554.64 887.796C1555.48 888.674 1556.71 889.113 1558.31 889.113C1559.9 889.113 1561.12 888.674 1561.97 887.796Z" fill="white"/>
<path d="M1599.86 881.261H1599.61L1595.54 897.04H1582.39L1576.08 871.595H1586.32L1589.42 888.541H1589.82L1593.9 871.595H1605.55L1609.68 888.541H1610.02L1613.18 871.595H1623.42L1617.11 897.04H1603.89L1599.86 881.261Z" fill="white"/>
<path d="M1627.24 861.406H1637.43V897.04H1627.24V861.406Z" fill="white"/>
<path d="M1673.31 884.317L1673.16 885.833H1653.51C1653.54 887.506 1653.91 888.732 1654.63 889.511C1655.36 890.289 1656.49 890.679 1658.03 890.679C1658.88 890.679 1659.63 890.496 1660.29 890.132C1660.96 889.767 1661.39 889.37 1661.61 888.939L1661.91 888.392H1672.74C1672.74 888.807 1672.59 889.403 1672.29 890.182C1671.73 891.606 1670.88 892.857 1669.74 893.934C1668.94 894.696 1668.05 895.325 1667.05 895.822C1666.07 896.319 1664.83 896.725 1663.32 897.04C1661.7 897.371 1659.94 897.537 1658.03 897.537C1653.39 897.537 1649.69 896.427 1646.92 894.207C1644.16 891.987 1642.77 888.691 1642.77 884.317C1642.77 879.977 1644.16 876.689 1646.92 874.452C1649.67 872.216 1653.38 871.098 1658.06 871.098C1662.71 871.098 1666.41 872.216 1669.16 874.452C1671.93 876.689 1673.31 879.977 1673.31 884.317ZM1658.03 877.707C1656.74 877.707 1655.71 878.055 1654.95 878.751C1654.19 879.447 1653.81 880.283 1653.81 881.261H1662.11C1662.11 880.333 1661.74 879.505 1661.01 878.776C1660.3 878.064 1659.31 877.707 1658.03 877.707Z" fill="white"/>
<path d="M1688.57 897.537C1685.31 897.537 1682.58 896.394 1680.4 894.108C1678.21 891.822 1677.12 888.558 1677.12 884.317C1677.12 880.076 1678.21 876.813 1680.4 874.527C1682.58 872.241 1685.31 871.098 1688.57 871.098C1690.36 871.098 1691.97 871.346 1693.39 871.843C1694.8 872.373 1695.75 872.887 1696.25 873.384L1697.02 874.129H1697.47V861.406H1707.65V897.04H1697.47V892.468H1696.97C1696.7 893.047 1696.34 893.636 1695.88 894.232C1695.36 894.845 1694.84 895.35 1694.31 895.748C1693.66 896.245 1692.82 896.667 1691.78 897.015C1690.75 897.363 1689.68 897.537 1688.57 897.537ZM1689.07 881.161C1688.22 881.94 1687.8 882.992 1687.8 884.317C1687.8 885.642 1688.21 886.694 1689.04 887.473C1689.87 888.252 1691.07 888.641 1692.65 888.641C1694.19 888.641 1695.37 888.26 1696.2 887.498C1697.04 886.719 1697.47 885.659 1697.47 884.317C1697.47 882.959 1697.04 881.899 1696.2 881.137C1695.35 880.374 1694.17 879.993 1692.65 879.993C1691.09 879.993 1689.9 880.383 1689.07 881.161Z" fill="white"/>
<path d="M1714.46 879.745C1714.46 877.028 1715.62 874.908 1717.94 873.384C1720.26 871.86 1723.45 871.098 1727.51 871.098H1744.56V877.384H1739.91C1740.32 878.527 1740.53 879.447 1740.53 880.143C1740.53 882.826 1739.39 884.872 1737.1 886.28C1734.8 887.688 1731.6 888.392 1727.51 888.392C1724.46 888.392 1722.93 888.865 1722.91 889.809C1722.91 890.687 1724.44 891.126 1727.51 891.126C1732.46 891.126 1736.25 891.747 1738.87 892.989C1741.47 894.232 1742.77 896.394 1742.77 899.475C1742.77 902.49 1741.47 904.619 1738.87 905.861C1736.25 907.104 1732.46 907.725 1727.51 907.725C1722.57 907.725 1718.79 907.112 1716.15 905.886C1713.54 904.644 1712.23 902.507 1712.23 899.475C1712.23 897.885 1712.65 896.518 1713.49 895.375C1714.32 894.248 1715.14 893.511 1715.95 893.163L1717.17 892.666V892.468C1716.71 892.252 1716.27 891.863 1715.85 891.3C1715.51 890.852 1715.33 890.355 1715.33 889.809C1715.33 889.146 1715.57 888.533 1716.05 887.97C1716.53 887.456 1717.01 887.084 1717.47 886.852L1718.19 886.603V886.404C1717.89 886.289 1717.46 885.982 1716.9 885.485C1716.45 885.087 1716.08 884.673 1715.78 884.243C1714.9 883 1714.46 881.501 1714.46 879.745ZM1731.56 900.916C1732.39 900.668 1732.8 900.187 1732.8 899.475C1732.8 898.763 1732.39 898.291 1731.56 898.059C1730.68 897.827 1729.33 897.711 1727.51 897.711C1725.65 897.711 1724.3 897.827 1723.46 898.059C1722.63 898.291 1722.22 898.763 1722.22 899.475C1722.22 900.187 1722.63 900.668 1723.46 900.916C1724.3 901.148 1725.65 901.264 1727.51 901.264C1729.33 901.264 1730.68 901.148 1731.56 900.916ZM1727.51 882.28C1729.65 882.28 1730.71 881.443 1730.71 879.77C1730.71 878.113 1729.65 877.285 1727.51 877.285C1725.31 877.285 1724.2 878.113 1724.2 879.77C1724.19 880.598 1724.45 881.228 1725 881.658C1725.56 882.073 1726.4 882.28 1727.51 882.28Z" fill="white"/>
<path d="M1777.13 884.317L1776.98 885.833H1757.33C1757.36 887.506 1757.73 888.732 1758.45 889.511C1759.17 890.289 1760.31 890.679 1761.85 890.679C1762.7 890.679 1763.45 890.496 1764.11 890.132C1764.77 889.767 1765.21 889.37 1765.43 888.939L1765.73 888.392H1776.56C1776.56 888.807 1776.41 889.403 1776.11 890.182C1775.55 891.606 1774.7 892.857 1773.55 893.934C1772.76 894.696 1771.86 895.325 1770.87 895.822C1769.89 896.319 1768.65 896.725 1767.14 897.04C1765.52 897.371 1763.76 897.537 1761.85 897.537C1757.21 897.537 1753.51 896.427 1750.74 894.207C1747.98 891.987 1746.59 888.691 1746.59 884.317C1746.59 879.977 1747.98 876.689 1750.74 874.452C1753.49 872.216 1757.2 871.098 1761.88 871.098C1766.53 871.098 1770.23 872.216 1772.98 874.452C1775.75 876.689 1777.13 879.977 1777.13 884.317ZM1761.85 877.707C1760.56 877.707 1759.53 878.055 1758.77 878.751C1758.01 879.447 1757.63 880.283 1757.63 881.261H1765.93C1765.93 880.333 1765.56 879.505 1764.83 878.776C1764.12 878.064 1763.13 877.707 1761.85 877.707Z" fill="white"/>
<path d="M1474 943.284C1470.8 939.888 1469.2 935.498 1469.2 930.114C1469.2 924.746 1470.8 920.356 1474 916.944C1477.18 913.515 1481.44 911.8 1486.77 911.8C1489.72 911.8 1492.36 912.347 1494.7 913.44C1497.05 914.567 1498.83 915.925 1500.04 917.515C1501.24 919.089 1502.15 920.638 1502.78 922.162C1503.41 923.67 1503.72 925.02 1503.72 926.212H1500.37C1500.37 925.169 1499.82 923.678 1498.73 921.74C1498.06 920.597 1497.27 919.536 1496.34 918.559C1495.4 917.598 1494.09 916.753 1492.41 916.024C1490.74 915.312 1488.86 914.956 1486.77 914.956C1482.42 914.956 1478.99 916.381 1476.49 919.23C1473.95 922.096 1472.68 925.724 1472.68 930.114C1472.68 934.504 1473.95 938.132 1476.49 940.998C1479 943.863 1482.43 945.296 1486.77 945.296C1488.83 945.296 1490.71 944.932 1492.41 944.203C1494.09 943.474 1495.4 942.629 1496.34 941.668C1497.27 940.708 1498.06 939.647 1498.73 938.488C1499.82 936.55 1500.37 935.067 1500.37 934.04H1503.72C1503.72 935.233 1503.41 936.591 1502.78 938.115C1502.15 939.623 1501.24 941.155 1500.04 942.712C1498.82 944.302 1497.04 945.653 1494.7 946.762C1492.38 947.872 1489.74 948.427 1486.77 948.427C1481.44 948.427 1477.18 946.713 1474 943.284Z" fill="white"/>
<path d="M1514.13 944.824C1511.61 942.406 1510.35 939.283 1510.35 935.456C1510.35 931.629 1511.61 928.507 1514.13 926.088C1516.63 923.686 1519.82 922.485 1523.7 922.485C1527.57 922.485 1530.76 923.686 1533.27 926.088C1535.77 928.49 1537.02 931.613 1537.02 935.456C1537.02 939.3 1535.77 942.422 1533.27 944.824C1530.76 947.226 1527.57 948.427 1523.7 948.427C1519.82 948.427 1516.63 947.226 1514.13 944.824ZM1523.7 945.396C1526.7 945.396 1529.12 944.443 1530.98 942.538C1532.83 940.633 1533.76 938.272 1533.76 935.456C1533.76 932.64 1532.83 930.279 1530.98 928.374C1529.12 926.486 1526.7 925.542 1523.7 925.542C1520.72 925.542 1518.29 926.486 1516.42 928.374C1514.55 930.296 1513.61 932.657 1513.61 935.456C1513.61 938.256 1514.55 940.617 1516.42 942.538C1518.27 944.443 1520.7 945.396 1523.7 945.396Z" fill="white"/>
<path d="M1568.6 947.93H1565.44V934.587C1565.44 931.422 1564.64 929.111 1563.03 927.654C1561.41 926.179 1559.27 925.442 1556.62 925.442C1553.77 925.442 1551.6 926.295 1550.09 928.002C1548.58 929.708 1547.83 931.944 1547.83 934.711V947.93H1544.67V922.982H1547.83V926.908H1548.03C1548.19 926.544 1548.61 926.03 1549.29 925.368C1549.82 924.854 1550.4 924.407 1551.03 924.026C1551.74 923.595 1552.68 923.231 1553.84 922.932C1555 922.634 1556.2 922.485 1557.44 922.485C1560.67 922.485 1563.34 923.438 1565.44 925.343C1567.55 927.248 1568.6 930.13 1568.6 933.99V947.93Z" fill="white"/>
<path d="M1581.4 921.715V922.982H1589.5V925.939H1581.4V947.93H1578.24V925.939H1573.92V922.982H1578.24V921.466C1578.24 918.203 1579.05 915.776 1580.65 914.186C1582.24 912.595 1584.32 911.8 1586.89 911.8C1587.77 911.8 1588.64 911.883 1589.5 912.049C1590.36 912.214 1591.01 912.405 1591.44 912.62L1591.98 912.918V915.975C1590.87 915.163 1589.27 914.757 1587.16 914.757C1585.24 914.741 1583.8 915.32 1582.84 916.497C1581.88 917.656 1581.4 919.396 1581.4 921.715Z" fill="white"/>
<path d="M1628.17 948.427H1605.37V943.473C1605.37 942.311 1605.64 941.281 1606.18 940.383C1606.72 939.474 1607.45 938.744 1608.37 938.191C1609.95 937.248 1612 936.431 1614.52 935.74C1615.24 935.544 1615.85 935.372 1616.34 935.222C1616.85 935.061 1617.38 934.86 1617.93 934.618C1618.5 934.376 1618.95 934.129 1619.28 933.876C1619.61 933.623 1619.89 933.318 1620.11 932.961C1620.33 932.604 1620.44 932.219 1620.44 931.804C1620.44 930.32 1619.33 929.578 1617.12 929.578C1614.9 929.578 1613.79 930.556 1613.79 932.512V933.824H1606.01V932.512C1606.01 929.313 1606.91 926.977 1608.73 925.504C1610.54 924.054 1613.33 923.329 1617.1 923.329C1620.84 923.329 1623.63 924.025 1625.46 925.418C1627.29 926.81 1628.2 928.939 1628.2 931.804C1628.2 933.404 1627.73 934.814 1626.79 936.034C1625.86 937.242 1624.7 938.168 1623.32 938.813C1622.03 939.411 1620.68 939.94 1619.28 940.401C1618.09 940.78 1616.94 941.143 1615.83 941.488C1614.87 941.799 1614.39 942.11 1614.39 942.42H1628.17V948.427Z" fill="#07A13D"/>
<path d="M1651.33 926.747C1653.48 929.037 1654.55 932.138 1654.55 936.051C1654.55 939.975 1653.48 943.07 1651.33 945.337C1649.18 947.627 1646.18 948.772 1642.35 948.772C1638.53 948.772 1635.54 947.627 1633.39 945.337C1631.23 943.047 1630.15 939.952 1630.15 936.051C1630.15 932.15 1631.23 929.048 1633.39 926.747C1635.56 924.468 1638.54 923.329 1642.35 923.329C1646.18 923.329 1649.18 924.468 1651.33 926.747ZM1642.35 929.94C1639.64 929.94 1638.28 931.977 1638.28 936.051C1638.28 940.136 1639.64 942.179 1642.35 942.179C1645.06 942.179 1646.41 940.136 1646.41 936.051C1646.41 931.977 1645.06 929.94 1642.35 929.94Z" fill="#07A13D"/>
<path d="M1679.11 948.427H1656.31V943.473C1656.31 942.311 1656.58 941.281 1657.12 940.383C1657.66 939.474 1658.39 938.744 1659.31 938.191C1660.89 937.248 1662.94 936.431 1665.46 935.74C1666.18 935.544 1666.79 935.372 1667.29 935.222C1667.79 935.061 1668.32 934.86 1668.88 934.618C1669.44 934.376 1669.89 934.129 1670.22 933.876C1670.56 933.623 1670.83 933.318 1671.05 932.961C1671.27 932.604 1671.38 932.219 1671.38 931.804C1671.38 930.32 1670.27 929.578 1668.06 929.578C1665.84 929.578 1664.73 930.556 1664.73 932.512V933.824H1656.95V932.512C1656.95 929.313 1657.86 926.977 1659.67 925.504C1661.48 924.054 1664.27 923.329 1668.05 923.329C1671.79 923.329 1674.57 924.025 1676.4 925.418C1678.23 926.81 1679.15 928.939 1679.15 931.804C1679.15 933.404 1678.67 934.814 1677.73 936.034C1676.8 937.242 1675.64 938.168 1674.26 938.813C1672.97 939.411 1671.63 939.94 1670.22 940.401C1669.04 940.78 1667.89 941.143 1666.77 941.488C1665.81 941.799 1665.34 942.11 1665.34 942.42H1679.11V948.427Z" fill="#07A13D"/>
<path d="M1700.53 948.427H1692.76V943.836H1679.14V937.829L1690.27 923.674H1700.53V937.829H1703.72V943.836H1700.53V948.427ZM1693.28 928.283L1691.76 931.183L1686.42 937.76V937.932H1692.86V931.183L1694.05 928.283H1693.28Z" fill="#07A13D"/>
</g>
<defs>
<clipPath id="clip0_9563_576">
<rect width="1920" height="1080" fill="white"/>
</clipPath>
</defs>
</svg>
