<svg width="499" height="161" viewBox="0 0 499 161" fill="none" xmlns="http://www.w3.org/2000/svg">
<path d="M76.7905 15.6265L53.9451 17.609L42.0857 30.5434L24.2806 34.8438L15.5116 49.3233H49.1412L70.5086 43.4777L91.2369 35.0451L100.106 21.2036L101.652 0.676544L76.7905 15.6265Z" fill="#006C9E"/>
<path d="M127.923 30.5434L79.142 49.3233H49.1411L61.8406 30.6106L87.2391 26.5788L101.652 0.676544L120.029 13.1068L127.923 30.5434Z" fill="white"/>
<path d="M49.1413 49.3232L49.074 49.4914L33.7877 49.5919L27.5729 63.3665L45.4126 102.069L75.3799 160.896L89.8262 143.123L93.6558 124.04L116.568 118.329L127.923 96.0888L142.572 88.4626L147.14 49.3232H49.1413Z" fill="#006C9E"/>
<path d="M75.3798 160.896L45.9834 138.654L38.9951 106.907L12.9583 87.824L15.5116 49.3232H49.1412L41.5484 77.6784L59.3207 93.5692V113.894L71.7175 131.667L75.3798 160.896Z" fill="#1C2E51"/>
<path d="M111.159 26.5788L103.231 35.8177L88.2135 38.3711L79.142 49.3233H116.568L134.072 43.1754L139.313 33.2308L111.159 26.5788Z" fill="#006C9E"/>
<path d="M147.14 49.3233H116.568L139.313 33.2308L147.14 49.3233Z" fill="white"/>
<path d="M158.53 49.3232H1.56976V55.5384H158.53V49.3232Z" fill="#BBCB00"/>
<path d="M52.3327 66.0204H61.2025V79.022L72.222 66.0204H82.7371L70.6095 79.7951L83.1406 98.0374H72.4903L64.4275 86.1443L61.1689 89.773V98.0374H52.2991V66.0204H52.3327Z" fill="white"/>
<path d="M79.8146 82.0121C79.8146 72.6725 87.0034 65.3488 96.679 65.3488C103.23 65.3488 107.295 68.1708 110.117 72.1015L103.634 77.1409C101.819 74.8564 99.6698 73.4454 96.579 73.4454C92.1108 73.4454 88.9526 77.2415 88.9526 82.0121C88.9526 86.7828 92.1108 90.5793 96.579 90.5793C99.905 90.5793 101.887 89.0338 103.802 86.682L110.487 91.4528C107.464 95.6187 103.399 98.676 96.3099 98.676C87.1718 98.676 79.8146 91.6877 79.8146 82.0121Z" fill="white"/>
<path d="M222.259 38.3727L209.53 56.0073L222.761 74.4468H209.831L197.732 56.6109V74.4468H186.386V38.3727H197.732V55.8059L209.329 38.3727H222.259Z" fill="black"/>
<path d="M255.969 74.4468H245.679V62.0197C245.679 60.5605 245.243 59.395 244.371 58.5229C243.499 57.634 242.3 57.1897 240.774 57.1897C239.214 57.1897 238.006 57.6256 237.151 58.4977C236.312 59.353 235.894 60.527 235.894 62.0197V74.4468H225.579V48.6868H235.894V53.3155H236.396C236.513 52.913 236.9 52.3093 237.554 51.5043C238.006 50.9508 238.56 50.4394 239.214 49.9698C239.936 49.4834 240.875 49.0642 242.031 48.7119C243.189 48.3598 244.405 48.1837 245.679 48.1837C248.865 48.1837 251.381 49.0809 253.226 50.8754C255.054 52.6867 255.969 55.3951 255.969 59.0008V74.4468Z" fill="black"/>
<path d="M265.326 71.5538C262.526 69.2898 261.124 65.9608 261.124 61.5668C261.124 57.1728 262.526 53.8438 265.326 51.5798C268.111 49.3157 271.866 48.1837 276.596 48.1837C281.309 48.1837 285.057 49.3157 287.841 51.5798C290.642 53.8438 292.042 57.1728 292.042 61.5668C292.042 65.9608 290.642 69.2898 287.841 71.5538C285.057 73.8179 281.309 74.9499 276.596 74.9499C271.866 74.9499 268.111 73.8179 265.326 71.5538ZM280.294 65.0887C281.149 64.2166 281.577 63.0426 281.577 61.5668C281.577 60.091 281.149 58.9086 280.294 58.0198C279.439 57.1477 278.206 56.7117 276.596 56.7117C274.969 56.7117 273.729 57.1477 272.874 58.0198C272.017 58.9086 271.589 60.091 271.589 61.5668C271.589 63.0426 272.017 64.2166 272.874 65.0887C273.729 65.9775 274.969 66.4219 276.596 66.4219C278.206 66.4219 279.439 65.9775 280.294 65.0887Z" fill="black"/>
<path d="M318.657 58.4725H318.406L314.28 74.4468H300.973L294.583 48.6868H304.947L308.091 65.8433H308.494L312.62 48.6868H324.418L328.594 65.8433H328.947L332.141 48.6868H342.505L336.116 74.4468H322.732L318.657 58.4725Z" fill="black"/>
<path d="M346.38 38.3727H356.694V74.4468H346.38V38.3727Z" fill="black"/>
<path d="M393.019 61.5668L392.869 63.1013H372.969C373.003 64.7952 373.38 66.0362 374.101 66.8244C374.839 67.6127 375.988 68.0068 377.548 68.0068C378.403 68.0068 379.167 67.8224 379.837 67.4533C380.508 67.0843 380.952 66.6818 381.171 66.2458L381.473 65.6924H392.441C392.441 66.1116 392.289 66.7154 391.988 67.5037C391.417 68.946 390.554 70.2121 389.396 71.3023C388.591 72.0737 387.686 72.711 386.68 73.2142C385.691 73.7173 384.432 74.1281 382.906 74.4468C381.263 74.7822 379.476 74.9499 377.548 74.9499C372.852 74.9499 369.104 73.8262 366.304 71.5789C363.502 69.3316 362.102 65.9943 362.102 61.5668C362.102 57.1728 363.502 53.8438 366.304 51.5798C369.087 49.3157 372.844 48.1837 377.574 48.1837C382.285 48.1837 386.035 49.3157 388.818 51.5798C391.619 53.8438 393.019 57.1728 393.019 61.5668ZM377.548 54.8752C376.239 54.8752 375.2 55.2274 374.428 55.9318C373.657 56.6362 373.272 57.4831 373.272 58.4725H381.673C381.673 57.5334 381.305 56.6948 380.567 55.9569C379.846 55.2358 378.84 54.8752 377.548 54.8752Z" fill="black"/>
<path d="M408.465 74.9499C405.162 74.9499 402.403 73.7927 400.189 71.4783C397.974 69.1639 396.868 65.8601 396.868 61.5668C396.868 57.2735 397.974 53.9697 400.189 51.6552C402.403 49.3408 405.162 48.1837 408.465 48.1837C410.276 48.1837 411.903 48.4352 413.345 48.9383C414.771 49.475 415.736 49.9949 416.238 50.498L417.019 51.2527H417.471V38.3727H427.785V74.4468H417.471V69.818H416.969C416.699 70.405 416.331 71.0004 415.861 71.6042C415.342 72.2246 414.813 72.7362 414.277 73.1387C413.622 73.6418 412.767 74.0694 411.711 74.4217C410.67 74.7738 409.588 74.9499 408.465 74.9499ZM408.969 58.3719C408.114 59.1602 407.686 60.2251 407.686 61.5668C407.686 62.9085 408.105 63.9734 408.943 64.7617C409.782 65.5498 410.997 65.9439 412.591 65.9439C414.15 65.9439 415.35 65.5583 416.188 64.7868C417.043 63.9985 417.471 62.9252 417.471 61.5668C417.471 60.1916 417.043 59.1183 416.188 58.3468C415.333 57.5753 414.134 57.1897 412.591 57.1897C411.014 57.1897 409.807 57.5837 408.969 58.3719Z" fill="black"/>
<path d="M434.679 56.938C434.679 54.1876 435.852 52.041 438.2 50.498C440.548 48.9551 443.776 48.1837 447.884 48.1837H465.142V54.5482H460.439C460.857 55.7054 461.067 56.6362 461.067 57.3405C461.067 60.0574 459.909 62.1286 457.596 63.5542C455.265 64.9796 452.028 65.6924 447.884 65.6924C444.8 65.6924 443.248 66.1704 443.231 67.1263C443.231 68.0152 444.783 68.4597 447.884 68.4597C452.9 68.4597 456.732 69.0885 459.381 70.3463C462.015 71.6042 463.331 73.7927 463.331 76.9122C463.331 79.9643 462.015 82.1194 459.381 83.3773C456.732 84.635 452.9 85.2639 447.884 85.2639C442.887 85.2639 439.055 84.6435 436.389 83.4024C433.738 82.1447 432.414 79.9812 432.414 76.9122C432.414 75.3022 432.842 73.9185 433.697 72.7613C434.536 71.6209 435.365 70.8747 436.187 70.5224L437.419 70.0193V69.818C436.951 69.6 436.506 69.2059 436.086 68.6357C435.735 68.1829 435.558 67.6798 435.558 67.1263C435.558 66.4555 435.802 65.835 436.289 65.2648C436.774 64.7448 437.252 64.3675 437.722 64.1327L438.451 63.8812V63.6799C438.15 63.5625 437.713 63.2523 437.144 62.7492C436.69 62.3467 436.313 61.9273 436.012 61.4913C435.123 60.2335 434.679 58.7158 434.679 56.938ZM451.985 78.3712C452.824 78.1197 453.244 77.6333 453.244 76.9122C453.244 76.191 452.824 75.713 451.985 75.4782C451.097 75.2434 449.73 75.126 447.884 75.126C446.007 75.126 444.64 75.2434 443.785 75.4782C442.946 75.713 442.526 76.191 442.526 76.9122C442.526 77.6333 442.946 78.1197 443.785 78.3712C444.64 78.606 446.007 78.7233 447.884 78.7233C449.73 78.7233 451.097 78.606 451.985 78.3712ZM447.884 59.5039C450.048 59.5039 451.13 58.6571 451.13 56.9632C451.13 55.2861 450.048 54.4475 447.884 54.4475C445.655 54.4475 444.54 55.2861 444.54 56.9632C444.523 57.8017 444.791 58.439 445.345 58.875C445.915 59.2944 446.761 59.5039 447.884 59.5039Z" fill="black"/>
<path d="M498.121 61.5668L497.971 63.1013H478.073C478.106 64.7952 478.483 66.0362 479.205 66.8244C479.943 67.6127 481.092 68.0068 482.651 68.0068C483.507 68.0068 484.269 67.8224 484.94 67.4533C485.611 67.0843 486.056 66.6818 486.273 66.2458L486.576 65.6924H497.543C497.543 66.1116 497.393 66.7154 497.091 67.5037C496.521 68.946 495.656 70.2121 494.5 71.3023C493.695 72.0737 492.789 72.711 491.782 73.2142C490.793 73.7173 489.536 74.1281 488.009 74.4468C486.366 74.7822 484.579 74.9499 482.651 74.9499C477.955 74.9499 474.207 73.8262 471.406 71.5789C468.606 69.3316 467.204 65.9943 467.204 61.5668C467.204 57.1728 468.606 53.8438 471.406 51.5798C474.19 49.3157 477.946 48.1837 482.676 48.1837C487.389 48.1837 491.137 49.3157 493.921 51.5798C496.721 53.8438 498.121 57.1728 498.121 61.5668ZM482.651 54.8752C481.343 54.8752 480.303 55.2274 479.532 55.9318C478.76 56.6362 478.374 57.4831 478.374 58.4725H486.777C486.777 57.5334 486.407 56.6948 485.669 55.9569C484.948 55.2358 483.942 54.8752 482.651 54.8752Z" fill="black"/>
<path d="M273.856 117.873C270.619 114.435 269 109.991 269 104.54C269 99.1063 270.619 94.6621 273.856 91.2073C277.076 87.7357 281.385 86 286.786 86C289.77 86 292.445 86.5533 294.81 87.6602C297.192 88.8006 298.995 90.1758 300.219 91.7858C301.427 93.3791 302.349 94.9472 302.986 96.4901C303.624 98.0163 303.942 99.3831 303.942 100.591H300.546C300.546 99.534 299.993 98.0246 298.885 96.0625C298.214 94.9052 297.409 93.8319 296.47 92.8425C295.515 91.8697 294.189 91.0144 292.496 90.2765C290.802 89.5554 288.898 89.1948 286.786 89.1948C282.375 89.1948 278.903 90.6371 276.371 93.5217C273.806 96.423 272.521 100.096 272.521 104.54C272.521 108.984 273.806 112.657 276.371 115.559C278.92 118.46 282.391 119.911 286.786 119.911C288.865 119.911 290.768 119.542 292.496 118.804C294.189 118.066 295.515 117.21 296.47 116.238C297.409 115.265 298.214 114.192 298.885 113.018C299.993 111.056 300.546 109.555 300.546 108.515H303.942C303.942 109.722 303.624 111.097 302.986 112.64C302.349 114.167 301.427 115.718 300.219 117.294C298.978 118.904 297.175 120.271 294.81 121.395C292.462 122.518 289.787 123.08 286.786 123.08C281.385 123.08 277.076 121.345 273.856 117.873Z" fill="black"/>
<path d="M314.483 119.433C311.933 116.984 310.659 113.823 310.659 109.949C310.659 106.075 311.933 102.913 314.483 100.465C317.015 98.033 320.243 96.8171 324.168 96.8171C328.092 96.8171 331.321 98.033 333.853 100.465C336.386 102.897 337.652 106.058 337.652 109.949C337.652 113.839 336.386 117.001 333.853 119.433C331.321 121.864 328.092 123.08 324.168 123.08C320.243 123.08 317.015 121.864 314.483 119.433ZM324.168 120.011C327.203 120.011 329.66 119.047 331.539 117.118C333.417 115.19 334.356 112.8 334.356 109.949C334.356 107.098 333.417 104.708 331.539 102.779C329.66 100.867 327.203 99.9113 324.168 99.9113C321.149 99.9113 318.692 100.867 316.796 102.779C314.902 104.725 313.954 107.114 313.954 109.949C313.954 112.783 314.902 115.173 316.796 117.118C318.676 119.047 321.132 120.011 324.168 120.011Z" fill="black"/>
<path d="M369.625 122.577H366.431V109.068C366.431 105.865 365.617 103.525 363.99 102.05C362.346 100.557 360.183 99.8107 357.5 99.8107C354.615 99.8107 352.41 100.674 350.883 102.402C349.357 104.129 348.595 106.393 348.595 109.194V122.577H345.4V97.3202H348.595V101.295H348.795C348.963 100.926 349.39 100.406 350.078 99.7352C350.615 99.2154 351.203 98.7625 351.84 98.3768C352.56 97.9408 353.508 97.5718 354.683 97.27C355.856 96.9681 357.072 96.8171 358.331 96.8171C361.601 96.8171 364.3 97.7815 366.431 99.7101C368.56 101.639 369.625 104.557 369.625 108.465V122.577Z" fill="black"/>
<path d="M382.581 96.0373V97.3202H390.782V100.314H382.581V122.577H379.385V100.314H375.009V97.3202H379.385V95.7857C379.385 92.4819 380.199 90.025 381.826 88.415C383.436 86.805 385.541 86 388.14 86C389.029 86 389.91 86.0838 390.782 86.2515C391.654 86.4192 392.308 86.6121 392.743 86.8301L393.297 87.132V90.2262C392.174 89.4044 390.547 88.9936 388.417 88.9936C386.472 88.9768 385.013 89.5638 384.04 90.7545C383.067 91.9284 382.581 93.6894 382.581 96.0373Z" fill="black"/>
</svg>
