<svg width="256" height="55" viewBox="0 0 256 55" fill="none" xmlns="http://www.w3.org/2000/svg">
<g id="Group">
<g id="Group_2">
<path id="Vector" d="M111.155 26.7562C110.995 21.5977 108.875 19.3184 103.474 19.3184C98.3937 19.3184 96.4336 23.1572 96.4336 27.9558V34.3539C96.5936 39.6724 98.8738 42.3516 102.554 42.3516H106.594C107.234 42.3516 107.794 41.7917 107.794 41.072V39.9923C107.794 39.2725 107.274 38.7127 106.594 38.7127H103.074C102.674 38.7127 102.234 38.6727 101.834 38.5927C100.914 38.3528 99.9539 37.0331 99.7938 34.3139C99.7938 34.194 99.7538 28.9555 99.7538 28.9555H109.995C110.635 28.9555 111.195 28.3557 111.195 27.6359V27.396L111.155 26.7562ZM99.8339 25.9164C100.314 23.6771 102.074 22.4374 103.674 22.4374C106.194 22.4374 107.714 23.7171 108.194 25.9164H99.8339Z" fill="#30343E"/>
<path id="Vector_2" d="M78.8711 15.2805C78.8711 14.5608 79.4311 13.9609 80.1512 13.9609H85.4716C90.672 13.9609 92.5121 16.9601 92.5921 21.3588C92.6321 23.6381 91.7521 25.8374 89.5119 26.7972C92.7922 27.5569 94.2323 30.0362 94.2723 33.6351C94.2723 39.6734 91.112 42.3526 85.7516 42.3526H80.1912C79.4711 42.3526 78.9111 41.7528 78.9111 41.033V15.2805H78.8711ZM82.1113 17.28V25.6775H85.0316C88.2318 25.6775 89.2719 23.4381 89.2719 21.3588C89.2719 18.3996 88.1518 17.24 85.4316 17.24L82.1113 17.28C82.1113 17.24 82.1113 17.24 82.1113 17.28ZM85.7516 39.0336C89.7119 39.0336 90.872 36.9942 90.872 33.7151C90.872 30.0762 88.9119 29.0765 85.8316 29.0765H82.1513V39.0336H85.7516Z" fill="#30343E"/>
<path id="Vector_3" d="M220.12 20.4407V21.3204C220.12 22.0402 219.56 22.6401 218.84 22.6401H214.32V40.9947C214.32 41.7144 213.759 42.3143 213.039 42.3143H211.879C211.159 42.3143 210.599 41.7144 210.599 40.9947V22.6401H206.079C205.359 22.6401 204.799 22.0402 204.799 21.3204V20.4407C204.799 19.7209 205.359 19.1211 206.079 19.1211H218.76C219.56 19.1611 220.12 19.7209 220.12 20.4407Z" fill="#30343E"/>
<path id="Vector_4" d="M148.676 20.6809C148.676 19.9612 148.116 19.3613 147.396 19.3613H140.995H134.595C133.875 19.3613 133.314 19.9612 133.314 20.6809V21.2808V21.8406V41.1949C133.314 41.9147 133.875 42.5145 134.595 42.5145H135.755C136.475 42.5145 137.035 41.9147 137.035 41.1949V23.1602H140.995H144.955V41.2349C144.955 41.9547 145.515 42.5545 146.235 42.5545H147.396C148.116 42.5545 148.676 41.9547 148.676 41.2349V21.8806V20.6809Z" fill="#30343E"/>
<path id="Vector_5" d="M254.725 42.3533C255.805 42.3533 256.405 41.0337 255.685 40.194L246.164 29.4771L253.165 21.3595C253.965 20.5198 253.365 19.1602 252.245 19.1602H250.805C250.445 19.1602 250.125 19.3201 249.885 19.56L244.644 25.7982V20.4798C244.644 19.76 244.084 19.1602 243.364 19.1602H242.204C241.484 19.1602 240.924 19.76 240.924 20.4798V41.0337C240.924 41.7535 241.484 42.3533 242.204 42.3533H243.364C244.084 42.3533 244.644 41.7535 244.644 41.0337V33.316L252.365 41.8735C252.605 42.1534 252.965 42.3133 253.325 42.3133H254.725V42.3533Z" fill="#30343E"/>
<path id="Vector_6" d="M204 42.3533C205.08 42.3533 205.68 41.0337 204.96 40.194L195.44 29.4771L202.44 21.3595C203.24 20.5198 202.64 19.1602 201.52 19.1602H200.08C199.72 19.1602 199.4 19.3201 199.16 19.56L193.919 25.7982V20.4798C193.919 19.76 193.359 19.1602 192.639 19.1602H191.479C190.759 19.1602 190.199 19.76 190.199 20.4798V41.0337C190.199 41.7535 190.759 42.3533 191.479 42.3533H192.639C193.359 42.3533 193.919 41.7535 193.919 41.0337V33.316L201.64 41.8735C201.88 42.1534 202.24 42.3133 202.6 42.3133H204V42.3533Z" fill="#30343E"/>
<path id="Vector_7" d="M235.722 19.1611H234.562H234.522C234.482 19.1611 234.442 19.1611 234.362 19.1611H234.322C233.922 19.2411 233.562 19.521 233.322 19.9608L232.202 22.2002L226.242 34.1567V22.76V20.4407C226.242 19.7209 225.682 19.1211 224.962 19.1211H223.802C223.082 19.1211 222.521 19.7209 222.521 20.4407V22.76V38.7153V41.0346C222.521 41.7544 223.082 42.3543 223.802 42.3543H224.962C225.042 42.3543 225.162 42.3543 225.242 42.3143C225.642 42.2743 226.082 41.9544 226.322 41.4745L227.442 39.2352L233.322 27.4386V38.7153V41.0346C233.322 41.7544 233.882 42.3543 234.602 42.3543H235.763C236.483 42.3543 237.043 41.7544 237.043 41.0346V38.7153V22.76V20.4407C237.003 19.7209 236.403 19.1611 235.722 19.1611Z" fill="#30343E"/>
<g id="Group_3">
<path id="Vector_8" d="M169.038 33.6358C169.038 39.2341 166.878 42.3532 161.357 42.3532C158.797 42.3532 157.037 41.8334 156.157 40.5138V47.2718C156.157 48.0316 155.557 48.6314 154.837 48.6314H153.877C153.157 48.6314 152.557 48.0316 152.557 47.2718V27.7175C152.557 21.5593 154.837 19.0801 160.797 19.0801C166.758 19.0801 169.038 21.5593 169.038 27.7175V33.6358ZM156.157 33.7158C156.117 37.1148 158.157 38.8343 160.797 38.8343C163.998 38.8343 165.478 37.0748 165.478 33.5558V27.7175C165.478 24.5185 163.918 22.599 160.797 22.599C157.717 22.599 156.117 24.4385 156.117 27.7175L156.157 33.7158Z" fill="#30343E"/>
</g>
<path id="Vector_9" d="M122.715 19.1596C120.195 19.1596 118.474 20.0794 117.594 21.359C117.714 18.6398 118.674 17.4801 120.435 17.0802C120.875 16.9603 121.315 16.9603 121.755 16.9603H122.755C123.475 16.9603 124.035 16.4004 124.035 15.6806V14.641C124.035 13.9212 123.475 13.3613 122.755 13.3613H121.195C115.994 13.6812 113.954 16.2005 113.914 21.9988V33.8353C113.914 39.9935 116.194 42.4728 122.155 42.4728C128.115 42.4728 129.835 39.9935 129.835 33.8353V27.8371C129.835 22.2387 128.235 19.1596 122.715 19.1596ZM126.275 33.7553C126.275 37.8741 124.875 38.8738 122.155 38.8738C119.074 38.8738 117.474 37.8741 117.474 33.7553L117.514 27.7571C117.554 23.6383 119.514 22.6386 122.155 22.6386C124.915 22.6386 126.275 23.6783 126.275 27.917V33.7553Z" fill="#30343E"/>
<path id="Vector_10" d="M186.08 27.2769C185.92 21.9585 183.879 19.5992 179.079 19.2793H177.599C176.919 19.2793 176.359 19.8391 176.359 20.5589V21.5986C176.359 22.3184 176.919 22.8782 177.599 22.8782H178.559C178.999 22.8782 179.399 22.9182 179.839 22.9982C181.039 23.2781 181.879 23.9579 182.319 25.3175H179.799C173.799 25.3175 171.398 27.6768 171.398 33.795C171.398 39.9132 173.799 42.2725 179.799 42.2725H182.719H184.799H184.879C185.6 42.2725 186.16 41.6727 186.16 40.9529L186.08 27.2769ZM179.759 38.6736C175.759 38.6736 174.799 37.0341 174.799 33.875C174.799 30.7159 175.759 29.0764 179.759 29.0764H182.599C182.599 31.3957 182.639 35.5945 182.639 38.6336L179.759 38.6736Z" fill="#30343E"/>
</g>
<g id="Group_4">
<path id="Vector_11" d="M47.5095 0.0470485L31.8283 7.88474C31.7483 7.92473 31.6283 7.92473 31.5483 7.88474L15.8271 0.0470485C15.5471 -0.112904 15.2271 0.167013 15.2671 0.446931L19.1874 20.0412L25.8279 17.8018C25.9879 17.7618 26.1879 17.8018 26.2679 17.9618L31.6283 27.239H42.3891C42.5892 27.239 42.7492 27.1191 42.7492 26.9191L48.0696 0.406943C48.1496 0.167013 47.7896 -0.112904 47.5095 0.0470485Z" fill="url(#paint0_linear_1_1517)"/>
<path id="Vector_12" d="M26.3892 37.0363C26.2692 36.9163 26.2292 36.7164 26.3092 36.5564L31.6696 27.2791L26.3092 18.0019C26.2292 17.8419 26.0292 17.7619 25.8692 17.8419L0.267265 26.5194C-0.052759 26.6393 -0.092762 27.0392 0.187259 27.1992L14.8684 36.8763C14.9484 36.9163 14.9884 37.0363 14.9884 37.1163L16.0285 54.6311C16.0285 54.951 16.4285 55.111 16.6685 54.911L31.7097 41.7149L26.3892 37.0363Z" fill="url(#paint1_linear_1_1517)"/>
<path id="Vector_13" d="M63.112 26.4801L44.1506 20.082L42.7905 26.96C42.7505 27.12 42.5904 27.2799 42.4304 27.2799H31.6696L26.3092 36.5572C26.2292 36.7171 26.2692 36.9171 26.3892 37.037L46.7108 54.8718C46.9508 55.0717 47.3108 54.9118 47.3508 54.5919L48.3909 37.077C48.3909 36.997 48.4309 36.8771 48.5109 36.8371L63.192 27.1599C63.472 27 63.392 26.6001 63.112 26.4801Z" fill="url(#paint2_linear_1_1517)"/>
</g>
</g>
<defs>
<linearGradient id="paint0_linear_1_1517" x1="15.2652" y1="13.6412" x2="48.0786" y2="13.6412" gradientUnits="userSpaceOnUse">
<stop stop-color="#FF090A"/>
<stop offset="1" stop-color="#FF7102"/>
</linearGradient>
<linearGradient id="paint1_linear_1_1517" x1="21.7415" y1="19.0506" x2="8.25746" y2="53.6903" gradientUnits="userSpaceOnUse">
<stop offset="0.2148" stop-color="#2A00B5"/>
<stop offset="1" stop-color="#00CFFF"/>
</linearGradient>
<linearGradient id="paint2_linear_1_1517" x1="44.8103" y1="54.9734" x2="44.8103" y2="20.0762" gradientUnits="userSpaceOnUse">
<stop stop-color="#FF7502"/>
<stop offset="1" stop-color="#FFF201"/>
</linearGradient>
</defs>
</svg>
